<svg width="1080" height="580" viewBox="0 0 1080 580" xmlns="http://www.w3.org/2000/svg" font-family="Microsoft YaHei,sans-serif"><defs><marker id="ifarr" markerWidth="9" markerHeight="9" refX="8" refY="3.2" orient="auto"><path d="M0,0 L8,3.2 L0,6.4 z" fill="#5f7183"/></marker><linearGradient id="ifhdr" x1="0" y1="0" x2="1" y2="0"><stop offset="0" stop-color="#0a3a6b"/><stop offset="1" stop-color="#0a7ea4"/></linearGradient></defs><rect x="14" y="6" width="1052" height="26" rx="8" fill="url(#ifhdr)"/><text x="540" y="23" text-anchor="middle" font-size="13" font-weight="700" fill="#fff">🛰 卫星方案 · 数字透明体制 ｜ 单跳时延 260.57 ms（传播 128.79 + 星上 3.00）</text><rect x="128" y="40" width="150" height="40" rx="8" fill="#eef1f5" stroke="#dde5ee"/><text x="203" y="56" text-anchor="middle" font-size="10.5" font-weight="700" fill="#2c3e50">信息流（泳道）</text><text x="203" y="71" text-anchor="middle" font-size="8.5" fill="#5f7183">名称 / 空间段</text><rect x="284" y="40" width="85" height="40" rx="8" fill="#eaf1fa" stroke="#c9daee"/><text x="326" y="56" text-anchor="middle" font-size="10" font-weight="700" fill="#0b5cad">L1</text><text x="326" y="71" text-anchor="middle" font-size="8.5" fill="#2c3e50">接入层</text><rect x="381" y="40" width="85" height="40" rx="8" fill="#eaf1fa" stroke="#c9daee"/><text x="423" y="56" text-anchor="middle" font-size="10" font-weight="700" fill="#0b5cad">L2</text><text x="423" y="71" text-anchor="middle" font-size="8.5" fill="#2c3e50">天线</text><rect x="478" y="40" width="85" height="40" rx="8" fill="#eaf1fa" stroke="#c9daee"/><text x="520" y="56" text-anchor="middle" font-size="10" font-weight="700" fill="#0b5cad">L3</text><text x="520" y="71" text-anchor="middle" font-size="8.5" fill="#2c3e50">射频前端层</text><rect x="575" y="40" width="85" height="40" rx="8" fill="#eaf1fa" stroke="#c9daee"/><text x="617" y="56" text-anchor="middle" font-size="10" font-weight="700" fill="#0b5cad">L4</text><text x="617" y="71" text-anchor="middle" font-size="8.5" fill="#2c3e50">变频</text><rect x="672" y="40" width="85" height="40" rx="8" fill="#eaf1fa" stroke="#c9daee"/><text x="714" y="56" text-anchor="middle" font-size="10" font-weight="700" fill="#0b5cad">L5</text><text x="714" y="71" text-anchor="middle" font-size="8.5" fill="#2c3e50">处理</text><rect x="769" y="40" width="85" height="40" rx="8" fill="#eaf1fa" stroke="#c9daee"/><text x="811" y="56" text-anchor="middle" font-size="10" font-weight="700" fill="#0b5cad">L6</text><text x="811" y="71" text-anchor="middle" font-size="8.5" fill="#2c3e50">功放层</text><rect x="866" y="40" width="85" height="40" rx="8" fill="#eaf1fa" stroke="#c9daee"/><text x="908" y="56" text-anchor="middle" font-size="10" font-weight="700" fill="#0b5cad">L7</text><text x="908" y="71" text-anchor="middle" font-size="8.5" fill="#2c3e50">总线</text><rect x="963" y="40" width="85" height="40" rx="8" fill="#eaf1fa" stroke="#c9daee"/><text x="1005" y="56" text-anchor="middle" font-size="10" font-weight="700" fill="#0b5cad">L8</text><text x="1005" y="71" text-anchor="middle" font-size="8.5" fill="#2c3e50">供能层</text><rect x="8" y="92" width="1064" height="168" rx="12" fill="#0b5cad" fill-opacity=".05" stroke="#0b5cad" stroke-opacity=".3"/><rect x="8" y="92" width="6" height="168" rx="3" fill="#0b5cad"/><rect x="18" y="96" width="116" height="18" rx="9" fill="#0b5cad"/><text x="76" y="109" text-anchor="middle" font-size="10.5" font-weight="700" fill="#fff">业务信息流 ×3</text><text x="132" y="137" font-size="10" font-weight="700" fill="#1c2733">用户上行业务流（用户链路）</text><rect x="132" y="142" width="42" height="14" rx="7" fill="#0b5cad" fill-opacity=".14" stroke="#0b5cad" stroke-opacity=".45"/><text x="153" y="152" text-anchor="middle" font-size="8.5" font-weight="700" fill="#0b5cad">星地</text><text x="180" y="152" font-size="8" fill="#5f7183">单载波 371.25 Mbps × 44</text><rect x="284" y="128" width="85" height="26" rx="7" fill="#fff" stroke="#0b5cad" stroke-opacity=".6"/><rect x="284" y="128" width="3.5" height="26" rx="1.8" fill="#0b5cad"/><text x="328" y="140" text-anchor="middle" font-size="8.5" fill="#1c2733">用户终端</text><text x="328" y="150" text-anchor="middle" font-size="7.5" fill="#0b5cad" opacity=".85">L1</text><rect x="381" y="128" width="85" height="26" rx="7" fill="#fff" stroke="#0b5cad" stroke-opacity=".6"/><rect x="381" y="128" width="3.5" height="26" rx="1.8" fill="#0b5cad"/><text x="425" y="140" text-anchor="middle" font-size="8.5" fill="#1c2733">用户天线/用户下行波束</text><text x="425" y="150" text-anchor="middle" font-size="7.5" fill="#0b5cad" opacity=".85">L2</text><rect x="478" y="128" width="85" height="26" rx="7" fill="#fff" stroke="#0b5cad" stroke-opacity=".6"/><rect x="478" y="128" width="3.5" height="26" rx="1.8" fill="#0b5cad"/><text x="522" y="140" text-anchor="middle" font-size="8.5" fill="#1c2733">环行器/滤波/LNA</text><text x="522" y="150" text-anchor="middle" font-size="7.5" fill="#0b5cad" opacity=".85">L3</text><rect x="575" y="128" width="85" height="26" rx="7" fill="#fff" stroke="#0b5cad" stroke-opacity=".6"/><rect x="575" y="128" width="3.5" height="26" rx="1.8" fill="#0b5cad"/><text x="619" y="140" text-anchor="middle" font-size="8.5" fill="#1c2733">下变频/数字信道化/子带交</text><text x="619" y="150" text-anchor="middle" font-size="7.5" fill="#0b5cad" opacity=".85">L4</text><rect x="672" y="128" width="85" height="26" rx="7" fill="#fff" stroke="#0b5cad" stroke-opacity=".6"/><rect x="672" y="128" width="3.5" height="26" rx="1.8" fill="#0b5cad"/><text x="716" y="140" text-anchor="middle" font-size="8.5" fill="#1c2733"></text><text x="716" y="150" text-anchor="middle" font-size="7.5" fill="#0b5cad" opacity=".85">L5</text><rect x="769" y="128" width="85" height="26" rx="7" fill="#fff" stroke="#0b5cad" stroke-opacity=".6"/><rect x="769" y="128" width="3.5" height="26" rx="1.8" fill="#0b5cad"/><text x="813" y="140" text-anchor="middle" font-size="8.5" fill="#1c2733">功放</text><text x="813" y="150" text-anchor="middle" font-size="7.5" fill="#0b5cad" opacity=".85">L6</text><path d="M369,141 L381,141 L478,141 L575,141 L672,141 L769,141" fill="none" stroke="#0b5cad" stroke-width="1.8" opacity=".3"/><path d="M369,141 L381,141 L478,141 L575,141 L672,141 L769,141" fill="none" stroke="#0b5cad" stroke-width="1.8" stroke-dasharray="6 7" marker-end="url(#ifarr)"/><line x1="124" y1="161" x2="1064" y2="161" stroke="#0b5cad" stroke-opacity=".2" stroke-dasharray="4 4"/><text x="132" y="183" font-size="10" font-weight="700" fill="#1c2733">（未配置星间链路）</text><rect x="132" y="188" width="42" height="14" rx="7" fill="#0b5cad" fill-opacity=".14" stroke="#0b5cad" stroke-opacity=".45"/><text x="153" y="198" text-anchor="middle" font-size="8.5" font-weight="700" fill="#0b5cad">星间</text><text x="180" y="198" font-size="8" fill="#5f7183">—</text><rect x="672" y="174" width="85" height="26" rx="7" fill="#fff" stroke="#0b5cad" stroke-opacity=".6"/><rect x="672" y="174" width="3.5" height="26" rx="1.8" fill="#0b5cad"/><text x="716" y="186" text-anchor="middle" font-size="8.5" fill="#1c2733">业务经馈电链路落地中转（双</text><text x="716" y="196" text-anchor="middle" font-size="7.5" fill="#0b5cad" opacity=".85">L5</text><line x1="124" y1="207" x2="1064" y2="207" stroke="#0b5cad" stroke-opacity=".2" stroke-dasharray="4 4"/><text x="132" y="229" font-size="10" font-weight="700" fill="#1c2733">射频信息流（业务主干）</text><rect x="132" y="234" width="42" height="14" rx="7" fill="#0b5cad" fill-opacity=".14" stroke="#0b5cad" stroke-opacity=".45"/><text x="153" y="244" text-anchor="middle" font-size="8.5" font-weight="700" fill="#0b5cad">星内</text><text x="180" y="244" font-size="8" fill="#5f7183">转发器总带宽 1404 MHz · 11</text><rect x="381" y="220" width="85" height="26" rx="7" fill="#fff" stroke="#0b5cad" stroke-opacity=".6"/><rect x="381" y="220" width="3.5" height="26" rx="1.8" fill="#0b5cad"/><text x="425" y="232" text-anchor="middle" font-size="8.5" fill="#1c2733">天线馈源/天线馈源</text><text x="425" y="242" text-anchor="middle" font-size="7.5" fill="#0b5cad" opacity=".85">L2</text><rect x="478" y="220" width="85" height="26" rx="7" fill="#fff" stroke="#0b5cad" stroke-opacity=".6"/><rect x="478" y="220" width="3.5" height="26" rx="1.8" fill="#0b5cad"/><text x="522" y="232" text-anchor="middle" font-size="8.5" fill="#1c2733">环行器/接收滤波/LNA</text><text x="522" y="242" text-anchor="middle" font-size="7.5" fill="#0b5cad" opacity=".85">L3</text><rect x="575" y="220" width="85" height="26" rx="7" fill="#fff" stroke="#0b5cad" stroke-opacity=".6"/><rect x="575" y="220" width="3.5" height="26" rx="1.8" fill="#0b5cad"/><text x="619" y="232" text-anchor="middle" font-size="8.5" fill="#1c2733">下变频/上变频/OMUX</text><text x="619" y="242" text-anchor="middle" font-size="7.5" fill="#0b5cad" opacity=".85">L4</text><rect x="672" y="220" width="85" height="26" rx="7" fill="#fff" stroke="#0b5cad" stroke-opacity=".6"/><rect x="672" y="220" width="3.5" height="26" rx="1.8" fill="#0b5cad"/><text x="716" y="232" text-anchor="middle" font-size="8.5" fill="#1c2733">处理交换</text><text x="716" y="242" text-anchor="middle" font-size="7.5" fill="#0b5cad" opacity=".85">L5</text><rect x="769" y="220" width="85" height="26" rx="7" fill="#fff" stroke="#0b5cad" stroke-opacity=".6"/><rect x="769" y="220" width="3.5" height="26" rx="1.8" fill="#0b5cad"/><text x="813" y="232" text-anchor="middle" font-size="8.5" fill="#1c2733">功放</text><text x="813" y="242" text-anchor="middle" font-size="7.5" fill="#0b5cad" opacity=".85">L6</text><path d="M466,233 L478,233 L575,233 L672,233 L769,233" fill="none" stroke="#0b5cad" stroke-width="1.8" opacity=".3"/><path d="M466,233 L478,233 L575,233 L672,233 L769,233" fill="none" stroke="#0b5cad" stroke-width="1.8" stroke-dasharray="6 7" marker-end="url(#ifarr)"/><rect x="8" y="266" width="1064" height="76" rx="12" fill="#7048a8" fill-opacity=".05" stroke="#7048a8" stroke-opacity=".3"/><rect x="8" y="266" width="6" height="76" rx="3" fill="#7048a8"/><rect x="18" y="270" width="116" height="18" rx="9" fill="#7048a8"/><text x="76" y="283" text-anchor="middle" font-size="10.5" font-weight="700" fill="#fff">载荷数据流 ×1</text><text x="132" y="311" font-size="10" font-weight="700" fill="#1c2733">数据信息流（载荷数据）</text><rect x="132" y="316" width="42" height="14" rx="7" fill="#7048a8" fill-opacity=".14" stroke="#7048a8" stroke-opacity=".45"/><text x="153" y="326" text-anchor="middle" font-size="8.5" font-weight="700" fill="#7048a8">星内</text><text x="180" y="326" font-size="8" fill="#5f7183">R_pdl=8000 Mbps（压缩后 </text><rect x="672" y="302" width="85" height="26" rx="7" fill="#fff" stroke="#7048a8" stroke-opacity=".6"/><rect x="672" y="302" width="3.5" height="26" rx="1.8" fill="#7048a8"/><text x="716" y="314" text-anchor="middle" font-size="8.5" fill="#1c2733">基带/路由数据/DPU 压</text><text x="716" y="324" text-anchor="middle" font-size="7.5" fill="#7048a8" opacity=".85">L5</text><rect x="866" y="302" width="85" height="26" rx="7" fill="#fff" stroke="#7048a8" stroke-opacity=".6"/><rect x="866" y="302" width="3.5" height="26" rx="1.8" fill="#7048a8"/><text x="910" y="314" text-anchor="middle" font-size="8.5" fill="#1c2733">FC-AE 总线</text><text x="910" y="324" text-anchor="middle" font-size="7.5" fill="#7048a8" opacity=".85">L7</text><path d="M757,315 L866,315" fill="none" stroke="#7048a8" stroke-width="1.8" opacity=".3"/><path d="M757,315 L866,315" fill="none" stroke="#7048a8" stroke-width="1.8" stroke-dasharray="6 7" marker-end="url(#ifarr)"/><rect x="8" y="348" width="1064" height="122" rx="12" fill="#5f7183" fill-opacity=".05" stroke="#5f7183" stroke-opacity=".3"/><rect x="8" y="348" width="6" height="122" rx="3" fill="#5f7183"/><rect x="18" y="352" width="116" height="18" rx="9" fill="#5f7183"/><text x="76" y="365" text-anchor="middle" font-size="10.5" font-weight="700" fill="#fff">控制信息流 ×2</text><text x="132" y="393" font-size="10" font-weight="700" fill="#1c2733">测控信息流 TT&amp;C</text><rect x="132" y="398" width="42" height="14" rx="7" fill="#5f7183" fill-opacity=".14" stroke="#5f7183" stroke-opacity=".45"/><text x="153" y="408" text-anchor="middle" font-size="8.5" font-weight="700" fill="#5f7183">星地</text><text x="180" y="408" font-size="8" fill="#5f7183">遥控 2kbps / 遥测 64kbps</text><rect x="284" y="384" width="85" height="26" rx="7" fill="#fff" stroke="#5f7183" stroke-opacity=".6"/><rect x="284" y="384" width="3.5" height="26" rx="1.8" fill="#5f7183"/><text x="328" y="396" text-anchor="middle" font-size="8.5" fill="#1c2733">地面测控站</text><text x="328" y="406" text-anchor="middle" font-size="7.5" fill="#5f7183" opacity=".85">L1</text><rect x="672" y="384" width="85" height="26" rx="7" fill="#fff" stroke="#5f7183" stroke-opacity=".6"/><rect x="672" y="384" width="3.5" height="26" rx="1.8" fill="#5f7183"/><text x="716" y="396" text-anchor="middle" font-size="8.5" fill="#1c2733">/星载计算机//各单机</text><text x="716" y="406" text-anchor="middle" font-size="7.5" fill="#5f7183" opacity=".85">L5</text><rect x="866" y="384" width="85" height="26" rx="7" fill="#fff" stroke="#5f7183" stroke-opacity=".6"/><rect x="866" y="384" width="3.5" height="26" rx="1.8" fill="#5f7183"/><text x="910" y="396" text-anchor="middle" font-size="8.5" fill="#1c2733">测控应答机</text><text x="910" y="406" text-anchor="middle" font-size="7.5" fill="#5f7183" opacity=".85">L7</text><path d="M369,397 L672,397 L866,397" fill="none" stroke="#5f7183" stroke-width="1.8" opacity=".3"/><path d="M369,397 L672,397 L866,397" fill="none" stroke="#5f7183" stroke-width="1.8" stroke-dasharray="6 7" marker-end="url(#ifarr)"/><line x1="124" y1="417" x2="1064" y2="417" stroke="#5f7183" stroke-opacity=".2" stroke-dasharray="4 4"/><text x="132" y="439" font-size="10" font-weight="700" fill="#1c2733">控制信息流</text><rect x="132" y="444" width="42" height="14" rx="7" fill="#5f7183" fill-opacity=".14" stroke="#5f7183" stroke-opacity=".45"/><text x="153" y="454" text-anchor="middle" font-size="8.5" font-weight="700" fill="#5f7183">星内</text><text x="180" y="454" font-size="8" fill="#5f7183">指令级（kbps）</text><rect x="672" y="430" width="85" height="26" rx="7" fill="#fff" stroke="#5f7183" stroke-opacity=".6"/><rect x="672" y="430" width="3.5" height="26" rx="1.8" fill="#5f7183"/><text x="716" y="442" text-anchor="middle" font-size="8.5" fill="#1c2733">星载计算机（FDIR//在</text><text x="716" y="452" text-anchor="middle" font-size="7.5" fill="#5f7183" opacity=".85">L5</text><rect x="8" y="476" width="1064" height="76" rx="12" fill="#c0392b" fill-opacity=".05" stroke="#c0392b" stroke-opacity=".3"/><rect x="8" y="476" width="6" height="76" rx="3" fill="#c0392b"/><rect x="18" y="480" width="116" height="18" rx="9" fill="#c0392b"/><text x="76" y="493" text-anchor="middle" font-size="10.5" font-weight="700" fill="#fff">能量流（功率域） ×1</text><text x="132" y="521" font-size="10" font-weight="700" fill="#1c2733">供能信息流（功率流）</text><rect x="132" y="526" width="42" height="14" rx="7" fill="#c0392b" fill-opacity=".14" stroke="#c0392b" stroke-opacity=".45"/><text x="153" y="536" text-anchor="middle" font-size="8.5" font-weight="700" fill="#c0392b">星内</text><text x="180" y="536" font-size="8" fill="#5f7183">载荷总功耗 660121W（含 20% </text><rect x="672" y="512" width="85" height="26" rx="7" fill="#fff" stroke="#c0392b" stroke-opacity=".6"/><rect x="672" y="512" width="3.5" height="26" rx="1.8" fill="#c0392b"/><text x="716" y="524" text-anchor="middle" font-size="8.5" fill="#1c2733">数字单机</text><text x="716" y="534" text-anchor="middle" font-size="7.5" fill="#c0392b" opacity=".85">L5</text><rect x="769" y="512" width="85" height="26" rx="7" fill="#fff" stroke="#c0392b" stroke-opacity=".6"/><rect x="769" y="512" width="3.5" height="26" rx="1.8" fill="#c0392b"/><text x="813" y="524" text-anchor="middle" font-size="8.5" fill="#1c2733">EPC（6kV 高压/功放</text><text x="813" y="534" text-anchor="middle" font-size="7.5" fill="#c0392b" opacity=".85">L6</text><rect x="963" y="512" width="85" height="26" rx="7" fill="#fff" stroke="#c0392b" stroke-opacity=".6"/><rect x="963" y="512" width="3.5" height="26" rx="1.8" fill="#c0392b"/><text x="1007" y="524" text-anchor="middle" font-size="8.5" fill="#1c2733">平台一次电源（母线 100</text><text x="1007" y="534" text-anchor="middle" font-size="7.5" fill="#c0392b" opacity=".85">L8</text><path d="M757,525 L769,525 L963,525" fill="none" stroke="#c0392b" stroke-width="1.8" opacity=".3"/><path d="M757,525 L769,525 L963,525" fill="none" stroke="#c0392b" stroke-width="1.8" stroke-dasharray="6 7" marker-end="url(#ifarr)"/></svg>